<svg width="24" height="24" viewBox="0 0 24 24" fill="none" xmlns="http://www.w3.org/2000/svg">
<g clip-path="url(#clip0_2926_802)">
<path d="M9.7 18.29C10.09 17.9 10.09 17.27 9.7 16.88L5.83 13L21 13C21.55 13 22 12.55 22 12C22 11.45 21.55 11 21 11L5.83 11L9.71 7.12001C10.1 6.73 10.1 6.1 9.71 5.71C9.32 5.32 8.69 5.32 8.3 5.71L2.7 11.3C2.31 11.69 2.31 12.32 2.7 12.71L8.29 18.29C8.68 18.68 9.32 18.68 9.7 18.29Z" fill="black"/>
</g>
<defs>
<clipPath id="clip0_2926_802">
<rect width="24" height="24" fill="white"/>
</clipPath>
</defs>
</svg>
