<svg width="20" height="16" viewBox="0 0 20 16" fill="none" xmlns="http://www.w3.org/2000/svg">
<path fill-rule="evenodd" clip-rule="evenodd" d="M12 3C12 1.34315 13.3431 0 15 0H17C18.6569 0 20 1.34315 20 3V13C20 14.6569 18.6569 16 17 16H3C1.34315 16 0 14.6569 0 13V11C0 9.3431 1.34315 8 3 8H6V7C6 5.34315 7.34315 4 9 4H12V3ZM14 14H17C17.5523 14 18 13.5523 18 13V3C18 2.44772 17.5523 2 17 2H15C14.4477 2 14 2.44772 14 3V14ZM12 14V6H9C8.4477 6 8 6.4477 8 7V14H12ZM6 14V10H3C2.44772 10 2 10.4477 2 11V13C2 13.5523 2.44772 14 3 14H6Z" fill="black"/>
</svg>
